<svg width="103" height="111" viewBox="0 0 103 111" fill="none" xmlns="http://www.w3.org/2000/svg">
<g style="mix-blend-mode:plus-darker" filter="url(#filter0_d_61_990)">
<g opacity="0.9" clip-path="url(#clip0_61_990)">
<path fill-rule="evenodd" clip-rule="evenodd" d="M51.1736 28.7151C51.6371 28.4928 52.1819 28.5733 52.5684 28.9211L56.735 32.6711C57.0228 32.9302 57.1884 33.3075 57.1884 33.7046C57.1884 34.1016 57.0228 34.479 56.735 34.738L53.7166 37.4546L56.735 40.1711C57.0228 40.4302 57.1884 40.8075 57.1884 41.2046C57.1884 41.6016 57.0228 41.979 56.735 42.238L52.5684 45.988C52.1819 46.3358 51.6371 46.4163 51.1736 46.1941C50.7101 45.9718 50.413 45.4876 50.413 44.9546V40.4278L48.4017 42.238C47.8557 42.7294 47.0322 42.665 46.5622 42.0942C46.0922 41.5235 46.1538 40.6625 46.6997 40.1711L49.7181 37.4546L46.6997 34.738C46.1538 34.2467 46.0922 33.3857 46.5622 32.8149C47.0322 32.2442 47.8557 32.1798 48.4017 32.6711L50.413 34.4813V29.9546C50.413 29.4215 50.7101 28.9373 51.1736 28.7151ZM53.0217 40.4278L53.8848 41.2046L53.0217 41.9813V40.4278ZM53.0217 34.4813V32.9278L53.8848 33.7046L53.0217 34.4813ZM42.913 37.4546C42.913 36.7015 43.497 36.0909 44.2174 36.0909H46.7174C47.4377 36.0909 48.0217 36.7015 48.0217 37.4546C48.0217 38.2077 47.4377 38.8182 46.7174 38.8182H44.2174C43.497 38.8182 42.913 38.2077 42.913 37.4546ZM55.413 37.4546C55.413 36.7015 55.997 36.0909 56.7174 36.0909H59.2174C59.9377 36.0909 60.5217 36.7015 60.5217 37.4546C60.5217 38.2077 59.9377 38.8182 59.2174 38.8182H56.7174C55.997 38.8182 55.413 38.2077 55.413 37.4546Z" fill="#243DAF"/>
</g>
<g opacity="0.9">
<path fill-rule="evenodd" clip-rule="evenodd" d="M51.5 26.8636C45.2616 26.8636 40.3043 31.906 40.3043 38C40.3043 44.0939 45.2616 49.1364 51.5 49.1364C57.7384 49.1364 62.6957 44.0939 62.6957 38C62.6957 31.906 57.7384 26.8636 51.5 26.8636ZM37.6956 38C37.6956 30.2868 43.9313 24.1364 51.5 24.1364C59.0687 24.1364 65.3043 30.2868 65.3043 38C65.3043 45.7132 59.0687 51.8636 51.5 51.8636C43.9313 51.8636 37.6956 45.7132 37.6956 38Z" fill="#243DAF"/>
</g>
</g>
<g style="mix-blend-mode:plus-darker" opacity="0.9" filter="url(#filter1_d_61_990)">
<path d="M22.5938 77.3438H14.4688L14.4062 71.2188H21.7812C22.6354 71.2188 23.3333 71.0833 23.875 70.8125C24.4375 70.5208 24.8542 70.0938 25.125 69.5312C25.3958 68.9479 25.5312 68.2396 25.5312 67.4062C25.5312 66.4479 25.3958 65.6771 25.125 65.0938C24.875 64.4896 24.4792 64.0521 23.9375 63.7812C23.4167 63.5104 22.7604 63.375 21.9688 63.375H17.6562V92.5H8.90625V56.0938H21.25C23.2917 56.0938 25.125 56.3021 26.75 56.7188C28.375 57.1354 29.75 57.7604 30.875 58.5938C32 59.4271 32.8542 60.4792 33.4375 61.75C34.0417 63 34.3438 64.4688 34.3438 66.1562C34.3438 67.6354 34.0312 69.0417 33.4062 70.375C32.8021 71.7083 31.8021 72.7917 30.4062 73.625C29.0104 74.4583 27.125 74.8646 24.75 74.8438L22.5938 77.3438ZM22.2812 92.5H12.2188L15.3438 85.25H22.2812C23.2604 85.25 24.0208 85.0729 24.5625 84.7188C25.1042 84.3438 25.4896 83.8646 25.7188 83.2812C25.9688 82.6979 26.0938 82.0729 26.0938 81.4062C26.0938 80.5521 25.9792 79.8333 25.75 79.25C25.5208 78.6458 25.1562 78.1771 24.6562 77.8438C24.1562 77.5104 23.4688 77.3438 22.5938 77.3438H15.7188L15.75 71.2188H23.8125L25.875 73.7188C28.2083 73.5312 30.0208 73.8646 31.3125 74.7188C32.6042 75.5521 33.5208 76.6458 34.0625 78C34.6042 79.3542 34.875 80.7083 34.875 82.0625C34.875 83.875 34.6042 85.4375 34.0625 86.75C33.5417 88.0625 32.75 89.1458 31.6875 90C30.6458 90.8333 29.3333 91.4583 27.75 91.875C26.1875 92.2917 24.3646 92.5 22.2812 92.5ZM62.2188 85.25V92.5H45.7812V85.25H62.2188ZM48.7812 56.0938V92.5H40.0312V56.0938H48.7812ZM83.125 56.0938H91.875V79.7188C91.875 82.5729 91.3229 85 90.2188 87C89.1354 88.9792 87.6146 90.4792 85.6562 91.5C83.6979 92.5 81.4062 93 78.7812 93C76.1562 93 73.8542 92.5 71.875 91.5C69.8958 90.4792 68.3542 88.9792 67.25 87C66.1458 85 65.5938 82.5729 65.5938 79.7188V56.0938H74.3438V79.7188C74.3438 81.1354 74.5104 82.2917 74.8438 83.1875C75.1771 84.0625 75.6667 84.7083 76.3125 85.125C76.9792 85.5417 77.8021 85.75 78.7812 85.75C79.7604 85.75 80.5625 85.5417 81.1875 85.125C81.8333 84.7083 82.3125 84.0625 82.625 83.1875C82.9583 82.2917 83.125 81.1354 83.125 79.7188V56.0938Z" fill="#243DAF"/>
</g>
<g style="mix-blend-mode:plus-darker" opacity="0.9" filter="url(#filter2_d_61_990)">
<path d="M17.292 100.444H16.3574L16.3516 100.034H17.1865C17.3271 100.034 17.4482 100.016 17.5498 99.9785C17.6514 99.9395 17.7295 99.8838 17.7842 99.8115C17.8389 99.7373 17.8662 99.6475 17.8662 99.542C17.8662 99.4248 17.8389 99.3291 17.7842 99.2549C17.7295 99.1787 17.6484 99.123 17.541 99.0879C17.4355 99.0527 17.3047 99.0352 17.1484 99.0352H16.501V102H15.959V98.5869H17.1484C17.3418 98.5869 17.5156 98.6055 17.6699 98.6426C17.8242 98.6797 17.9561 98.7363 18.0654 98.8125C18.1768 98.8887 18.2617 98.9854 18.3203 99.1025C18.3789 99.2197 18.4082 99.3584 18.4082 99.5186C18.4082 99.6572 18.3711 99.7842 18.2969 99.8994C18.2227 100.013 18.1162 100.105 17.9775 100.178C17.8389 100.248 17.6709 100.29 17.4736 100.304L17.292 100.444ZM17.2656 102H16.1641L16.4424 101.555H17.2656C17.416 101.555 17.542 101.533 17.6436 101.49C17.7471 101.447 17.8252 101.386 17.8779 101.306C17.9326 101.226 17.96 101.13 17.96 101.019C17.96 100.903 17.9365 100.803 17.8896 100.717C17.8447 100.631 17.7725 100.564 17.6729 100.518C17.5752 100.469 17.4482 100.444 17.292 100.444H16.5918L16.5947 100.034H17.5352L17.6523 100.189C17.8398 100.195 17.9961 100.238 18.1211 100.318C18.248 100.396 18.3438 100.498 18.4082 100.623C18.4727 100.746 18.5049 100.879 18.5049 101.021C18.5049 101.184 18.4756 101.326 18.417 101.449C18.3604 101.57 18.2773 101.672 18.168 101.754C18.0605 101.836 17.9307 101.897 17.7783 101.938C17.626 101.979 17.4551 102 17.2656 102ZM21.9492 101.555V102H20.1094V101.555H21.9492ZM20.2412 98.5869V102H19.6992V98.5869H20.2412ZM25.0039 98.5869H25.5488V100.872C25.5488 101.13 25.4873 101.347 25.3643 101.522C25.2432 101.696 25.0801 101.827 24.875 101.915C24.6719 102.003 24.4473 102.047 24.2012 102.047C23.9453 102.047 23.7158 102.003 23.5127 101.915C23.3115 101.827 23.1523 101.696 23.0352 101.522C22.918 101.347 22.8594 101.13 22.8594 100.872V98.5869H23.3955V100.872C23.3955 101.04 23.4287 101.179 23.4951 101.288C23.5635 101.396 23.6582 101.476 23.7793 101.528C23.9004 101.579 24.041 101.604 24.2012 101.604C24.3633 101.604 24.5039 101.579 24.623 101.528C24.7441 101.476 24.8379 101.396 24.9043 101.288C24.9707 101.179 25.0039 101.04 25.0039 100.872V98.5869ZM29.1484 101.555V102H27.2031V101.555H29.1484ZM27.335 98.5869V102H26.793V98.5869H27.335ZM28.8936 100.014V100.456H27.2031V100.014H28.8936ZM29.1309 98.5869V99.0352H27.2031V98.5869H29.1309ZM31.6318 98.5869V102H31.0928V98.5869H31.6318ZM32.8008 98.5869V99.0352H29.9297V98.5869H32.8008ZM36.6934 100.198V100.392C36.6934 100.649 36.6582 100.881 36.5879 101.086C36.5176 101.289 36.417 101.463 36.2861 101.607C36.1553 101.75 35.998 101.859 35.8145 101.936C35.6328 102.01 35.4297 102.047 35.2051 102.047C34.9844 102.047 34.7822 102.01 34.5986 101.936C34.417 101.859 34.2588 101.75 34.124 101.607C33.9912 101.463 33.8887 101.289 33.8164 101.086C33.7441 100.881 33.708 100.649 33.708 100.392V100.198C33.708 99.9404 33.7441 99.71 33.8164 99.5068C33.8887 99.3018 33.9902 99.127 34.1211 98.9824C34.2539 98.8379 34.4111 98.7285 34.5928 98.6543C34.7764 98.5781 34.9785 98.54 35.1992 98.54C35.4258 98.54 35.6299 98.5781 35.8115 98.6543C35.9951 98.7285 36.1523 98.8379 36.2832 98.9824C36.416 99.127 36.5176 99.3018 36.5879 99.5068C36.6582 99.71 36.6934 99.9404 36.6934 100.198ZM36.1572 100.392V100.192C36.1572 99.999 36.1357 99.8281 36.0928 99.6797C36.0498 99.5312 35.9873 99.4062 35.9053 99.3047C35.8232 99.2031 35.7227 99.126 35.6035 99.0732C35.4844 99.0205 35.3496 98.9941 35.1992 98.9941C35.0547 98.9941 34.9238 99.0205 34.8066 99.0732C34.6895 99.126 34.5889 99.2031 34.5049 99.3047C34.4229 99.4062 34.3594 99.5312 34.3145 99.6797C34.2695 99.8281 34.2471 99.999 34.2471 100.192V100.392C34.2471 100.585 34.2695 100.757 34.3145 100.907C34.3594 101.056 34.4238 101.182 34.5078 101.285C34.5918 101.387 34.6924 101.464 34.8096 101.517C34.9287 101.569 35.0605 101.596 35.2051 101.596C35.3574 101.596 35.4922 101.569 35.6094 101.517C35.7266 101.464 35.8262 101.387 35.9082 101.285C35.9902 101.182 36.0518 101.056 36.0928 100.907C36.1357 100.757 36.1572 100.585 36.1572 100.392ZM40.7441 100.198V100.392C40.7441 100.649 40.709 100.881 40.6387 101.086C40.5684 101.289 40.4678 101.463 40.3369 101.607C40.2061 101.75 40.0488 101.859 39.8652 101.936C39.6836 102.01 39.4805 102.047 39.2559 102.047C39.0352 102.047 38.833 102.01 38.6494 101.936C38.4678 101.859 38.3096 101.75 38.1748 101.607C38.042 101.463 37.9395 101.289 37.8672 101.086C37.7949 100.881 37.7588 100.649 37.7588 100.392V100.198C37.7588 99.9404 37.7949 99.71 37.8672 99.5068C37.9395 99.3018 38.041 99.127 38.1719 98.9824C38.3047 98.8379 38.4619 98.7285 38.6436 98.6543C38.8271 98.5781 39.0293 98.54 39.25 98.54C39.4766 98.54 39.6807 98.5781 39.8623 98.6543C40.0459 98.7285 40.2031 98.8379 40.334 98.9824C40.4668 99.127 40.5684 99.3018 40.6387 99.5068C40.709 99.71 40.7441 99.9404 40.7441 100.198ZM40.208 100.392V100.192C40.208 99.999 40.1865 99.8281 40.1436 99.6797C40.1006 99.5312 40.0381 99.4062 39.9561 99.3047C39.874 99.2031 39.7734 99.126 39.6543 99.0732C39.5352 99.0205 39.4004 98.9941 39.25 98.9941C39.1055 98.9941 38.9746 99.0205 38.8574 99.0732C38.7402 99.126 38.6396 99.2031 38.5557 99.3047C38.4736 99.4062 38.4102 99.5312 38.3652 99.6797C38.3203 99.8281 38.2979 99.999 38.2979 100.192V100.392C38.2979 100.585 38.3203 100.757 38.3652 100.907C38.4102 101.056 38.4746 101.182 38.5586 101.285C38.6426 101.387 38.7432 101.464 38.8604 101.517C38.9795 101.569 39.1113 101.596 39.2559 101.596C39.4082 101.596 39.543 101.569 39.6602 101.517C39.7773 101.464 39.877 101.387 39.959 101.285C40.041 101.182 40.1025 101.056 40.1436 100.907C40.1865 100.757 40.208 100.585 40.208 100.392ZM43.2979 98.5869V102H42.7588V98.5869H43.2979ZM44.4668 98.5869V99.0352H41.5957V98.5869H44.4668ZM47.9053 100.093V100.541H45.9336V100.093H47.9053ZM46.042 98.5869V102H45.5V98.5869H46.042ZM48.3535 98.5869V102H47.8115V98.5869H48.3535ZM53.9062 101.555V102H52.0664V101.555H53.9062ZM52.1982 98.5869V102H51.6562V98.5869H52.1982ZM57.7461 100.198V100.392C57.7461 100.649 57.7109 100.881 57.6406 101.086C57.5703 101.289 57.4697 101.463 57.3389 101.607C57.208 101.75 57.0508 101.859 56.8672 101.936C56.6855 102.01 56.4824 102.047 56.2578 102.047C56.0371 102.047 55.835 102.01 55.6514 101.936C55.4697 101.859 55.3115 101.75 55.1768 101.607C55.0439 101.463 54.9414 101.289 54.8691 101.086C54.7969 100.881 54.7607 100.649 54.7607 100.392V100.198C54.7607 99.9404 54.7969 99.71 54.8691 99.5068C54.9414 99.3018 55.043 99.127 55.1738 98.9824C55.3066 98.8379 55.4639 98.7285 55.6455 98.6543C55.8291 98.5781 56.0312 98.54 56.252 98.54C56.4785 98.54 56.6826 98.5781 56.8643 98.6543C57.0479 98.7285 57.2051 98.8379 57.3359 98.9824C57.4688 99.127 57.5703 99.3018 57.6406 99.5068C57.7109 99.71 57.7461 99.9404 57.7461 100.198ZM57.21 100.392V100.192C57.21 99.999 57.1885 99.8281 57.1455 99.6797C57.1025 99.5312 57.04 99.4062 56.958 99.3047C56.876 99.2031 56.7754 99.126 56.6562 99.0732C56.5371 99.0205 56.4023 98.9941 56.252 98.9941C56.1074 98.9941 55.9766 99.0205 55.8594 99.0732C55.7422 99.126 55.6416 99.2031 55.5576 99.3047C55.4756 99.4062 55.4121 99.5312 55.3672 99.6797C55.3223 99.8281 55.2998 99.999 55.2998 100.192V100.392C55.2998 100.585 55.3223 100.757 55.3672 100.907C55.4121 101.056 55.4766 101.182 55.5605 101.285C55.6445 101.387 55.7451 101.464 55.8623 101.517C55.9814 101.569 56.1133 101.596 56.2578 101.596C56.4102 101.596 56.5449 101.569 56.6621 101.517C56.7793 101.464 56.8789 101.387 56.9609 101.285C57.043 101.182 57.1045 101.056 57.1455 100.907C57.1885 100.757 57.21 100.585 57.21 100.392ZM59.8691 101.186L60.5957 98.5869H60.9736L60.8389 99.3105L60.0537 102H59.6846L59.8691 101.186ZM59.2129 98.5869L59.7959 101.136L59.9189 102H59.5469L58.6738 98.5869H59.2129ZM61.8701 101.13L62.4473 98.5869H62.9863L62.1133 102H61.7412L61.8701 101.13ZM61.0791 98.5869L61.7939 101.194L61.9756 102H61.6064L60.8447 99.3105L60.707 98.5869H61.0791ZM68.3457 101.555V102H66.4004V101.555H68.3457ZM66.5322 98.5869V102H65.9902V98.5869H66.5322ZM68.0908 100.014V100.456H66.4004V100.014H68.0908ZM68.3281 98.5869V99.0352H66.4004V98.5869H68.3281ZM72.2676 98.5869V102H71.7256L69.9561 99.4336V102H69.4141V98.5869H69.9561L71.7256 101.153V98.5869H72.2676ZM75.9375 101.555V102H73.9922V101.555H75.9375ZM74.124 98.5869V102H73.582V98.5869H74.124ZM75.6826 100.014V100.456H73.9922V100.014H75.6826ZM75.9199 98.5869V99.0352H73.9922V98.5869H75.9199ZM77.0029 98.5869H78.251C78.458 98.5869 78.6426 98.6104 78.8047 98.6572C78.9668 98.7021 79.1035 98.7686 79.2148 98.8564C79.3262 98.9443 79.4102 99.0527 79.4668 99.1816C79.5254 99.3105 79.5547 99.459 79.5547 99.627C79.5547 99.7949 79.5205 99.9443 79.4521 100.075C79.3857 100.204 79.2891 100.313 79.1621 100.403C79.0371 100.491 78.8877 100.559 78.7139 100.605L78.5527 100.685H77.3984L77.3926 100.239H78.2656C78.4316 100.239 78.5693 100.214 78.6787 100.163C78.7881 100.11 78.8701 100.04 78.9248 99.9521C78.9814 99.8623 79.0098 99.7617 79.0098 99.6504C79.0098 99.5273 78.9834 99.4199 78.9307 99.3281C78.8779 99.2363 78.7949 99.165 78.6816 99.1143C78.5703 99.0615 78.4268 99.0352 78.251 99.0352H77.5479V102H77.0029V98.5869ZM79.127 102L78.248 100.479L78.8193 100.477L79.71 101.971V102H79.127ZM83.4736 100.266V101.561C83.4248 101.623 83.3486 101.692 83.2451 101.769C83.1436 101.845 83.0039 101.91 82.8262 101.965C82.6504 102.02 82.4258 102.047 82.1523 102.047C81.9258 102.047 81.7178 102.011 81.5283 101.938C81.3408 101.864 81.1777 101.758 81.0391 101.619C80.9023 101.479 80.7959 101.308 80.7197 101.106C80.6455 100.903 80.6084 100.673 80.6084 100.415V100.169C80.6084 99.9131 80.6416 99.6846 80.708 99.4834C80.7744 99.2822 80.8711 99.1113 80.998 98.9707C81.127 98.8301 81.2832 98.7236 81.4668 98.6514C81.6523 98.5771 81.8623 98.54 82.0967 98.54C82.3857 98.54 82.626 98.5869 82.8174 98.6807C83.0107 98.7725 83.1602 98.8994 83.2656 99.0615C83.373 99.2236 83.4414 99.4092 83.4707 99.6182H82.9346C82.9131 99.499 82.8711 99.3916 82.8086 99.2959C82.7461 99.2002 82.6572 99.125 82.542 99.0703C82.4287 99.0137 82.2822 98.9854 82.1025 98.9854C81.9424 98.9854 81.8027 99.0117 81.6836 99.0645C81.5645 99.1172 81.4648 99.1943 81.3848 99.2959C81.3066 99.3975 81.248 99.5215 81.209 99.668C81.1719 99.8125 81.1533 99.9775 81.1533 100.163V100.415C81.1533 100.604 81.1768 100.773 81.2236 100.922C81.2705 101.068 81.3379 101.192 81.4258 101.294C81.5156 101.396 81.6221 101.473 81.7451 101.525C81.8701 101.578 82.0098 101.604 82.1641 101.604C82.4062 101.604 82.583 101.579 82.6943 101.528C82.8057 101.476 82.8848 101.428 82.9316 101.385V100.688H82.1084V100.266H83.4736ZM85.7168 100.579L86.792 98.5869H87.4014L86.127 100.837H85.7959L85.7168 100.579ZM84.9697 98.5869L86.0508 100.594L85.9629 100.837H85.6377L84.3604 98.5869H84.9697ZM86.1416 100.409V102H85.6025V100.409H86.1416Z" fill="#243DAF"/>
</g>
<defs>
<filter id="filter0_d_61_990" x="32.5" y="23" width="38" height="38" filterUnits="userSpaceOnUse" color-interpolation-filters="sRGB">
<feFlood flood-opacity="0" result="BackgroundImageFix"/>
<feColorMatrix in="SourceAlpha" type="matrix" values="0 0 0 0 0 0 0 0 0 0 0 0 0 0 0 0 0 0 127 0" result="hardAlpha"/>
<feOffset dy="4"/>
<feGaussianBlur stdDeviation="2"/>
<feComposite in2="hardAlpha" operator="out"/>
<feColorMatrix type="matrix" values="0 0 0 0 0 0 0 0 0 0 0 0 0 0 0 0 0 0 0.05 0"/>
<feBlend mode="normal" in2="BackgroundImageFix" result="effect1_dropShadow_61_990"/>
<feBlend mode="normal" in="SourceGraphic" in2="effect1_dropShadow_61_990" result="shape"/>
</filter>
<filter id="filter1_d_61_990" x="4.90625" y="56.0938" width="90.9688" height="44.9062" filterUnits="userSpaceOnUse" color-interpolation-filters="sRGB">
<feFlood flood-opacity="0" result="BackgroundImageFix"/>
<feColorMatrix in="SourceAlpha" type="matrix" values="0 0 0 0 0 0 0 0 0 0 0 0 0 0 0 0 0 0 127 0" result="hardAlpha"/>
<feOffset dy="4"/>
<feGaussianBlur stdDeviation="2"/>
<feComposite in2="hardAlpha" operator="out"/>
<feColorMatrix type="matrix" values="0 0 0 0 0 0 0 0 0 0 0 0 0 0 0 0 0 0 0.15 0"/>
<feBlend mode="normal" in2="BackgroundImageFix" result="effect1_dropShadow_61_990"/>
<feBlend mode="normal" in="SourceGraphic" in2="effect1_dropShadow_61_990" result="shape"/>
</filter>
<filter id="filter2_d_61_990" x="11.959" y="98.54" width="79.4424" height="11.5068" filterUnits="userSpaceOnUse" color-interpolation-filters="sRGB">
<feFlood flood-opacity="0" result="BackgroundImageFix"/>
<feColorMatrix in="SourceAlpha" type="matrix" values="0 0 0 0 0 0 0 0 0 0 0 0 0 0 0 0 0 0 127 0" result="hardAlpha"/>
<feOffset dy="4"/>
<feGaussianBlur stdDeviation="2"/>
<feComposite in2="hardAlpha" operator="out"/>
<feColorMatrix type="matrix" values="0 0 0 0 0 0 0 0 0 0 0 0 0 0 0 0 0 0 0.15 0"/>
<feBlend mode="normal" in2="BackgroundImageFix" result="effect1_dropShadow_61_990"/>
<feBlend mode="normal" in="SourceGraphic" in2="effect1_dropShadow_61_990" result="shape"/>
</filter>
<clipPath id="clip0_61_990">
<rect width="20" height="18" fill="white" transform="translate(41.7174 28.4546)"/>
</clipPath>
</defs>
</svg>
