<svg width="145" height="60" viewBox="0 0 145 60" fill="none" xmlns="http://www.w3.org/2000/svg">
<g style="mix-blend-mode:plus-darker" filter="url(#filter0_d_223_90)">
<g opacity="0.9" clip-path="url(#clip0_223_90)">
<path fill-rule="evenodd" clip-rule="evenodd" d="M28.4561 11.5251C29.2285 11.1547 30.1366 11.2888 30.7806 11.8685L37.7251 18.1185C38.2048 18.5502 38.4807 19.1791 38.4807 19.8409C38.4807 20.5026 38.2048 21.1315 37.7251 21.5633L32.6944 26.0909L37.7251 30.6185C38.2048 31.0502 38.4807 31.6791 38.4807 32.3409C38.4807 33.0026 38.2048 33.6315 37.7251 34.0633L30.7806 40.3133C30.1366 40.8929 29.2285 41.0271 28.4561 40.6567C27.6836 40.2863 27.1884 39.4793 27.1884 38.5909V31.0463L23.8362 34.0633C22.9263 34.8822 21.5537 34.7749 20.7704 33.8236C19.9871 32.8724 20.0897 31.4374 20.9996 30.6185L26.0302 26.0909L20.9996 21.5633C20.0897 20.7444 19.9871 19.3094 20.7704 18.3581C21.5537 17.4068 22.9263 17.2996 23.8362 18.1185L27.1884 21.1355V13.5909C27.1884 12.7024 27.6836 11.8954 28.4561 11.5251ZM31.5362 31.0463L32.9747 32.3409L31.5362 33.6355V31.0463ZM31.5362 21.1355V18.5463L32.9747 19.8409L31.5362 21.1355ZM14.6884 26.0909C14.6884 24.8357 15.6617 23.8181 16.8623 23.8181H21.029C22.2296 23.8181 23.2029 24.8357 23.2029 26.0909C23.2029 27.3461 22.2296 28.3636 21.029 28.3636H16.8623C15.6617 28.3636 14.6884 27.3461 14.6884 26.0909ZM35.5217 26.0909C35.5217 24.8357 36.495 23.8181 37.6957 23.8181H41.8623C43.0629 23.8181 44.0362 24.8357 44.0362 26.0909C44.0362 27.3461 43.0629 28.3636 41.8623 28.3636H37.6957C36.495 28.3636 35.5217 27.3461 35.5217 26.0909Z" fill="#243DAF"/>
</g>
<g opacity="0.9">
<path fill-rule="evenodd" clip-rule="evenodd" d="M29 8.43937C18.6026 8.43937 10.3406 16.8434 10.3406 27C10.3406 37.1566 18.6026 45.5606 29 45.5606C39.3974 45.5606 47.6594 37.1566 47.6594 27C47.6594 16.8434 39.3974 8.43937 29 8.43937ZM5.99277 27C5.99277 14.1447 16.3855 3.89392 29 3.89392C41.6145 3.89392 52.0073 14.1447 52.0073 27C52.0073 39.8553 41.6145 50.106 29 50.106C16.3855 50.106 5.99277 39.8553 5.99277 27Z" fill="#243DAF"/>
</g>
<g style="mix-blend-mode:plus-darker" opacity="0.9">
<path d="M70.5938 30.8438H62.4688L62.4062 24.7188H69.7812C70.6354 24.7188 71.3333 24.5833 71.875 24.3125C72.4375 24.0208 72.8542 23.5938 73.125 23.0312C73.3958 22.4479 73.5312 21.7396 73.5312 20.9062C73.5312 19.9479 73.3958 19.1771 73.125 18.5938C72.875 17.9896 72.4792 17.5521 71.9375 17.2812C71.4167 17.0104 70.7604 16.875 69.9688 16.875H65.6562V46H56.9062V9.59375H69.25C71.2917 9.59375 73.125 9.80208 74.75 10.2188C76.375 10.6354 77.75 11.2604 78.875 12.0938C80 12.9271 80.8542 13.9792 81.4375 15.25C82.0417 16.5 82.3438 17.9688 82.3438 19.6562C82.3438 21.1354 82.0312 22.5417 81.4062 23.875C80.8021 25.2083 79.8021 26.2917 78.4062 27.125C77.0104 27.9583 75.125 28.3646 72.75 28.3438L70.5938 30.8438ZM70.2812 46H60.2188L63.3438 38.75H70.2812C71.2604 38.75 72.0208 38.5729 72.5625 38.2188C73.1042 37.8438 73.4896 37.3646 73.7188 36.7812C73.9688 36.1979 74.0938 35.5729 74.0938 34.9062C74.0938 34.0521 73.9792 33.3333 73.75 32.75C73.5208 32.1458 73.1562 31.6771 72.6562 31.3438C72.1562 31.0104 71.4688 30.8438 70.5938 30.8438H63.7188L63.75 24.7188H71.8125L73.875 27.2188C76.2083 27.0312 78.0208 27.3646 79.3125 28.2188C80.6042 29.0521 81.5208 30.1458 82.0625 31.5C82.6042 32.8542 82.875 34.2083 82.875 35.5625C82.875 37.375 82.6042 38.9375 82.0625 40.25C81.5417 41.5625 80.75 42.6458 79.6875 43.5C78.6458 44.3333 77.3333 44.9583 75.75 45.375C74.1875 45.7917 72.3646 46 70.2812 46ZM110.219 38.75V46H93.7812V38.75H110.219ZM96.7812 9.59375V46H88.0312V9.59375H96.7812ZM131.125 9.59375H139.875V33.2188C139.875 36.0729 139.323 38.5 138.219 40.5C137.135 42.4792 135.615 43.9792 133.656 45C131.698 46 129.406 46.5 126.781 46.5C124.156 46.5 121.854 46 119.875 45C117.896 43.9792 116.354 42.4792 115.25 40.5C114.146 38.5 113.594 36.0729 113.594 33.2188V9.59375H122.344V33.2188C122.344 34.6354 122.51 35.7917 122.844 36.6875C123.177 37.5625 123.667 38.2083 124.312 38.625C124.979 39.0417 125.802 39.25 126.781 39.25C127.76 39.25 128.562 39.0417 129.188 38.625C129.833 38.2083 130.312 37.5625 130.625 36.6875C130.958 35.7917 131.125 34.6354 131.125 33.2188V9.59375Z" fill="#243DAF"/>
</g>
</g>
<defs>
<filter id="filter0_d_223_90" x="0" y="2" width="143.875" height="58" filterUnits="userSpaceOnUse" color-interpolation-filters="sRGB">
<feFlood flood-opacity="0" result="BackgroundImageFix"/>
<feColorMatrix in="SourceAlpha" type="matrix" values="0 0 0 0 0 0 0 0 0 0 0 0 0 0 0 0 0 0 127 0" result="hardAlpha"/>
<feOffset dy="4"/>
<feGaussianBlur stdDeviation="2"/>
<feComposite in2="hardAlpha" operator="out"/>
<feColorMatrix type="matrix" values="0 0 0 0 0 0 0 0 0 0 0 0 0 0 0 0 0 0 0.05 0"/>
<feBlend mode="normal" in2="BackgroundImageFix" result="effect1_dropShadow_223_90"/>
<feBlend mode="normal" in="SourceGraphic" in2="effect1_dropShadow_223_90" result="shape"/>
</filter>
<clipPath id="clip0_223_90">
<rect width="33.3333" height="30" fill="white" transform="translate(12.6956 11.0909)"/>
</clipPath>
</defs>
</svg>
