<svg width="39" height="38" viewBox="0 0 39 38" fill="none" xmlns="http://www.w3.org/2000/svg">
<g style="mix-blend-mode:plus-darker" filter="url(#filter0_d_223_77)">
<g opacity="0.9" clip-path="url(#clip0_223_77)">
<path fill-rule="evenodd" clip-rule="evenodd" d="M19.1736 5.71505C19.6371 5.49282 20.1819 5.57331 20.5684 5.92109L24.735 9.67109C25.0228 9.93014 25.1884 10.3075 25.1884 10.7045C25.1884 11.1016 25.0228 11.4789 24.735 11.738L21.7166 14.4545L24.735 17.1711C25.0228 17.4301 25.1884 17.8075 25.1884 18.2045C25.1884 18.6016 25.0228 18.9789 24.735 19.238L20.5684 22.988C20.1819 23.3358 19.6371 23.4163 19.1736 23.194C18.7101 22.9718 18.413 22.4876 18.413 21.9545V17.4278L16.4017 19.238C15.8557 19.7293 15.0322 19.665 14.5622 19.0942C14.0922 18.5234 14.1538 17.6624 14.6997 17.1711L17.7181 14.4545L14.6997 11.738C14.1538 11.2466 14.0922 10.3856 14.5622 9.81488C15.0322 9.24412 15.8557 9.17975 16.4017 9.67109L18.413 11.4813V6.95454C18.413 6.42147 18.7101 5.93727 19.1736 5.71505ZM21.0217 17.4278L21.8848 18.2045L21.0217 18.9813V17.4278ZM21.0217 11.4813V9.92778L21.8848 10.7045L21.0217 11.4813ZM10.913 14.4545C10.913 13.7014 11.497 13.0909 12.2174 13.0909H14.7174C15.4377 13.0909 16.0217 13.7014 16.0217 14.4545C16.0217 15.2077 15.4377 15.8182 14.7174 15.8182H12.2174C11.497 15.8182 10.913 15.2077 10.913 14.4545ZM23.413 14.4545C23.413 13.7014 23.997 13.0909 24.7174 13.0909H27.2174C27.9377 13.0909 28.5217 13.7014 28.5217 14.4545C28.5217 15.2077 27.9377 15.8182 27.2174 15.8182H24.7174C23.997 15.8182 23.413 15.2077 23.413 14.4545Z" fill="#243DAF"/>
</g>
<g opacity="0.9">
<path fill-rule="evenodd" clip-rule="evenodd" d="M19.5 3.86364C13.2616 3.86364 8.30434 8.90605 8.30434 15C8.30434 21.094 13.2616 26.1364 19.5 26.1364C25.7384 26.1364 30.6957 21.094 30.6957 15C30.6957 8.90605 25.7384 3.86364 19.5 3.86364ZM5.69565 15C5.69565 7.28684 11.9313 1.13637 19.5 1.13637C27.0687 1.13637 33.3043 7.28684 33.3043 15C33.3043 22.7132 27.0687 28.8636 19.5 28.8636C11.9313 28.8636 5.69565 22.7132 5.69565 15Z" fill="#243DAF"/>
</g>
</g>
<defs>
<filter id="filter0_d_223_77" x="0.5" y="0" width="38" height="38" filterUnits="userSpaceOnUse" color-interpolation-filters="sRGB">
<feFlood flood-opacity="0" result="BackgroundImageFix"/>
<feColorMatrix in="SourceAlpha" type="matrix" values="0 0 0 0 0 0 0 0 0 0 0 0 0 0 0 0 0 0 127 0" result="hardAlpha"/>
<feOffset dy="4"/>
<feGaussianBlur stdDeviation="2"/>
<feComposite in2="hardAlpha" operator="out"/>
<feColorMatrix type="matrix" values="0 0 0 0 0 0 0 0 0 0 0 0 0 0 0 0 0 0 0.05 0"/>
<feBlend mode="normal" in2="BackgroundImageFix" result="effect1_dropShadow_223_77"/>
<feBlend mode="normal" in="SourceGraphic" in2="effect1_dropShadow_223_77" result="shape"/>
</filter>
<clipPath id="clip0_223_77">
<rect width="20" height="18" fill="white" transform="translate(9.71738 5.45454)"/>
</clipPath>
</defs>
</svg>
